<svg width="207" height="190" viewBox="0 0 207 190" fill="none" xmlns="http://www.w3.org/2000/svg">
<path opacity="0.2" d="M188.367 228.013C178.533 236.536 163.176 232.846 151.787 226.541C140.399 220.237 129.417 211.542 116.405 211.074C99.2033 210.454 85.1636 224.268 68.8142 229.643C54.0198 234.506 37.7746 232.229 22.8793 227.688C13.7028 224.888 4.68561 221.198 -3.0499 215.534C-15.7039 206.264 -24.3632 191.735 -26.4809 176.206C-28.6018 160.68 -24.1518 144.365 -14.445 132.051C-9.9234 126.318 -4.19173 121.19 -1.95696 114.242C3.72269 96.5887 -15.7006 79.8708 -15.1086 61.3373C-14.6044 45.5775 1.80998 33.3388 17.5803 34.1962C29.2616 34.8296 41.587 40.975 52.0387 35.7196C60.8542 31.286 64.2113 20.6322 70.5578 13.0837C82.2457 -0.821372 103.702 -2.82868 120.835 3.24199C128.734 6.03859 136.414 10.5794 140.743 17.7447C149.396 32.0655 142.152 51.6352 149.692 66.5699C152.181 71.5005 156.143 75.5639 160.525 78.9289C174.177 89.4202 192.852 94.4645 201.73 109.208C208.795 120.94 207.605 135.777 204.797 149.175C201.99 162.574 197.777 176.102 199.547 189.679C200.256 195.116 201.925 200.544 201.193 205.978C200.458 211.441 197.374 216.274 194.274 220.835C192.527 223.404 190.719 225.983 188.37 228.019L188.367 228.013Z" fill="#9A563A"/>
</svg>
