<svg width="182" height="242" viewBox="0 0 182 242" fill="none" xmlns="http://www.w3.org/2000/svg">
<path opacity="0.1" d="M249.636 235.69C238.237 245.584 220.437 241.301 207.236 233.982C194.035 226.663 181.306 216.569 166.223 216.026C146.285 215.306 130.011 231.342 111.06 237.583C93.9117 243.227 75.0815 240.584 57.8161 235.313C47.1794 232.063 36.7274 227.779 27.761 221.203C13.0936 210.442 3.05633 193.577 0.601692 175.549C-1.85671 157.526 3.30141 138.587 14.5528 124.293C19.7938 117.638 26.4375 111.684 29.0279 103.619C35.6113 83.1256 13.0973 63.7185 13.7835 42.2037C14.368 23.9089 33.3942 9.70148 51.6739 10.6969C65.214 11.4322 79.5006 18.5661 91.6154 12.4653C101.834 7.31849 105.725 -5.04895 113.081 -13.8117C126.629 -29.9535 151.499 -32.2837 171.359 -25.2365C180.514 -21.9901 189.416 -16.7188 194.435 -8.40098C204.464 8.22342 196.067 30.941 204.808 48.2781C207.692 54.0018 212.285 58.7188 217.364 62.6251C233.189 74.804 254.835 80.6596 265.125 97.7742C273.315 111.393 271.935 128.617 268.681 144.171C265.427 159.724 260.544 175.429 262.595 191.19C263.417 197.502 265.351 203.802 264.503 210.11C263.651 216.453 260.076 222.063 256.483 227.357C254.458 230.339 252.362 233.333 249.64 235.697L249.636 235.69Z" fill="#F06005"/>
</svg>
